<svg
      width="100"
      height="20"
      viewBox="0 0 100 20"
      fill="none"
      xmlns="http://www.w3.org/2000/svg"
    >
      <path
        d="M15.288 18.9526V12.2086C15.288 11.2326 15.104 10.4726 14.736 9.92859C14.384 9.38459 13.856 9.11259 13.152 9.11259C12.304 9.11259 11.624 9.44059 11.112 10.0966C10.6 10.7526 10.328 11.6726 10.296 12.8566V18.9526H7.656V12.2086C7.656 11.2326 7.472 10.4726 7.104 9.92859C6.752 9.38459 6.224 9.11259 5.52 9.11259C4.64 9.11259 3.936 9.45659 3.408 10.1446C2.896 10.8326 2.64 11.8006 2.64 13.0486V18.9526H0V6.95259H2.64V8.58459C3.376 7.33659 4.512 6.71259 6.048 6.71259C7.856 6.71259 9.096 7.50459 9.768 9.08859C10.104 8.33659 10.616 7.75259 11.304 7.33659C12.008 6.92059 12.776 6.71259 13.608 6.71259C14.952 6.71259 16.008 7.16859 16.776 8.08059C17.544 8.99259 17.928 10.2246 17.928 11.7766V18.9526H15.288Z"
        fill="#07070C"
      />
      <path
        d="M26.2247 19.1926C24.5927 19.1926 23.2167 18.5846 22.0967 17.3686C20.9927 16.1526 20.4407 14.6806 20.4407 12.9526C20.4407 11.2246 20.9927 9.75259 22.0967 8.53659C23.2167 7.32059 24.5927 6.71259 26.2247 6.71259C27.0407 6.71259 27.7927 6.89659 28.4807 7.26459C29.1687 7.61659 29.6967 8.04859 30.0647 8.56059V6.95259H32.7047V18.9526H30.0647V17.3446C29.6967 17.8566 29.1687 18.2966 28.4807 18.6646C27.7927 19.0166 27.0407 19.1926 26.2247 19.1926ZM24.1367 15.6886C24.8087 16.4246 25.6647 16.7926 26.7047 16.7926C27.7447 16.7926 28.6007 16.4246 29.2727 15.6886C29.9447 14.9526 30.2807 14.0406 30.2807 12.9526C30.2807 11.8646 29.9447 10.9526 29.2727 10.2166C28.6007 9.48059 27.7447 9.11259 26.7047 9.11259C25.6647 9.11259 24.8087 9.48059 24.1367 10.2166C23.4647 10.9526 23.1287 11.8646 23.1287 12.9526C23.1287 14.0406 23.4647 14.9526 24.1367 15.6886Z"
        fill="#07070C"
      />
      <path
        d="M40.5773 19.1926C39.2013 19.1926 38.1133 18.7366 37.3133 17.8246C36.5133 16.8966 36.1133 15.6646 36.1133 14.1286V6.95259H38.7533V13.6966C38.7533 14.6566 38.9613 15.4166 39.3773 15.9766C39.7933 16.5206 40.3853 16.7926 41.1533 16.7926C42.0493 16.7926 42.7612 16.4566 43.2892 15.7846C43.8172 15.0966 44.0812 14.1206 44.0812 12.8566V6.95259H46.7212V18.9526H44.0812V17.3206C43.3773 18.5686 42.2093 19.1926 40.5773 19.1926Z"
        fill="#07070C"
      />
      <path
        d="M50.2734 18.9526V6.95259H52.9134V9.08859C53.1374 8.41659 53.5454 7.87259 54.1374 7.45659C54.7454 7.04059 55.3934 6.83259 56.0814 6.83259C56.4974 6.83259 56.8414 6.86459 57.1134 6.92859V9.64059C56.7294 9.49659 56.2894 9.42459 55.7934 9.42459C54.9934 9.42459 54.3134 9.75259 53.7534 10.4086C53.1934 11.0486 52.9134 11.9446 52.9134 13.0966V18.9526H50.2734Z"
        fill="#07070C"
      />
      <path
        d="M60.7106 4.33659C60.2306 4.33659 59.8146 4.16859 59.4626 3.83259C59.1106 3.48059 58.9346 3.05659 58.9346 2.56059C58.9346 2.08059 59.1106 1.67259 59.4626 1.33659C59.8146 0.984594 60.2306 0.808594 60.7106 0.808594C61.2066 0.808594 61.6226 0.984594 61.9586 1.33659C62.2946 1.67259 62.4626 2.08059 62.4626 2.56059C62.4626 3.05659 62.2946 3.48059 61.9586 3.83259C61.6226 4.16859 61.2066 4.33659 60.7106 4.33659ZM59.3906 18.9526V6.95259H62.0306V18.9526H59.3906Z"
        fill="#07070C"
      />
      <path
        d="M71.0021 19.1926C69.1941 19.1926 67.6901 18.5926 66.4901 17.3926C65.3061 16.1766 64.7141 14.6966 64.7141 12.9526C64.7141 11.2086 65.3061 9.73659 66.4901 8.53659C67.6901 7.32059 69.1941 6.71259 71.0021 6.71259C72.5541 6.71259 73.8741 7.14459 74.9621 8.00859C76.0661 8.87259 76.7781 9.98459 77.0981 11.3446H74.3141C74.0741 10.6726 73.6581 10.1366 73.0661 9.7366C72.4901 9.32059 71.8021 9.11259 71.0021 9.11259C69.9461 9.11259 69.0821 9.47259 68.4101 10.1926C67.7381 10.9126 67.4021 11.8326 67.4021 12.9526C67.4021 14.0726 67.7381 14.9926 68.4101 15.7126C69.0821 16.4326 69.9461 16.7926 71.0021 16.7926C71.8021 16.7926 72.4901 16.5926 73.0661 16.1926C73.6581 15.7766 74.0741 15.2326 74.3141 14.5606H77.0981C76.7781 15.9206 76.0661 17.0326 74.9621 17.8966C73.8741 18.7606 72.5541 19.1926 71.0021 19.1926Z"
        fill="#07070C"
      />
      <path
        d="M97.056 19.1446C97.616 19.1446 98.104 18.9446 98.52 18.5446C98.92 18.1286 99.12 17.6326 99.12 17.0566C99.12 16.4966 98.92 16.0086 98.52 15.5926C98.104 15.1766 97.616 14.9686 97.056 14.9686C96.48 14.9686 95.992 15.1766 95.592 15.5926C95.176 16.0086 94.968 16.4966 94.968 17.0566C94.968 17.6326 95.176 18.1286 95.592 18.5446C95.992 18.9446 96.48 19.1446 97.056 19.1446Z"
        fill="#07070C"
      />
      <path
        d="M86.144 19.1926C87.936 19.1926 89.408 18.6086 90.56 17.4406C91.712 16.2566 92.288 14.7606 92.288 12.9526C92.288 11.1446 91.72 9.65659 90.584 8.48859C89.448 7.30459 87.96 6.71259 86.12 6.71259C84.264 6.71259 82.768 7.36059 81.632 8.65659C80.496 9.93659 79.992 11.5846 80.12 13.6006H89.672C89.64 14.5286 89.288 15.3046 88.616 15.9286C87.944 16.5526 87.088 16.8646 86.048 16.8646C84.576 16.8646 83.568 16.3046 83.024 15.1846H80.264C80.632 16.3526 81.336 17.3126 82.376 18.0646C83.416 18.8166 84.672 19.1926 86.144 19.1926ZM86.192 8.92059C87.056 8.92059 87.8 9.16859 88.424 9.66459C89.032 10.1446 89.424 10.8326 89.6 11.7286H82.952C83.144 10.8006 83.536 10.1046 84.128 9.64059C84.72 9.16059 85.408 8.92059 86.192 8.92059Z"
        fill="#07070C"
      />
    </svg>
